<svg width="18" height="18" viewBox="0 0 18 18" fill="none" xmlns="http://www.w3.org/2000/svg">
<path d="M16.285 9.87083C15.7203 10.0208 15.1385 10.0967 14.5542 10.0967C12.775 10.0967 11.1042 9.405 9.84916 8.15C9.02503 7.32112 8.43255 6.29072 8.13076 5.1615C7.82897 4.03227 7.82842 2.84367 8.12916 1.71417C8.16672 1.57294 8.16648 1.42433 8.12847 1.28323C8.09046 1.14212 8.01601 1.0135 7.91259 0.910253C7.80918 0.807007 7.68043 0.73277 7.53927 0.694989C7.39811 0.657208 7.24949 0.657212 7.10833 0.695001C5.69429 1.07182 4.40421 1.81386 3.36749 2.84667C0.119161 6.095 0.119161 11.3825 3.36749 14.6325C4.1396 15.4089 5.05802 16.0245 6.06961 16.4436C7.0812 16.8627 8.16586 17.077 9.26083 17.0742C10.3555 17.0772 11.4399 16.8631 12.4512 16.4441C13.4626 16.0251 14.3807 15.4097 15.1525 14.6333C16.1861 13.5964 16.9285 12.3057 17.305 10.8908C17.3424 10.7497 17.3421 10.6012 17.3041 10.4602C17.2661 10.3192 17.1918 10.1906 17.0885 10.0873C16.9852 9.98407 16.8567 9.90972 16.7157 9.87173C16.5747 9.83374 16.4262 9.83343 16.285 9.87083ZM13.975 13.455C13.3575 14.0759 12.6229 14.5682 11.8139 14.9033C11.0048 15.2385 10.1374 15.4098 9.26166 15.4075C8.38565 15.4097 7.51791 15.2382 6.7086 14.9029C5.89929 14.5676 5.16448 14.0752 4.54666 13.4542C1.94833 10.855 1.94833 6.625 4.54666 4.02583C5.04875 3.52431 5.62841 3.10701 6.26333 2.79C6.17039 3.98922 6.33745 5.19436 6.7531 6.32307C7.16874 7.45179 7.82317 8.47746 8.67166 9.33C9.52233 10.1811 10.5477 10.8374 11.6769 11.2534C12.8061 11.6693 14.0121 11.8351 15.2117 11.7392C14.8929 12.373 14.4755 12.9522 13.975 13.455Z" fill="#282525"/>
</svg>
